# xmcd CD database file
#
# Track frame offsets:
#	150
#	13978
#	27352
#	41002
#	54784
#	69165
#	81247
#	95509
#	108271
#	121247
#	135819
#	149150
#	162079
#	174782
#	189102
#	203662
#	220080
#	234665
#	247056
#	262373
#	276222
#	288589
#	300200
#	314167
#	326788
#	340062
#
# Disc length: 4718 seconds
#
# Revision: 0
# Processed by: cddbd v1.4PL0 Copyright (c) Steve Scherf et al.
# Submitted via: CDex 1.50
#
DISCID=78126c1a
DTITLE=Oscar Peterson - Genesis Disc 1
DYEAR=2002
DGENRE=Jazz
TTITLE0=I Got Rhythm
TTITLE1=Louise
TTITLE2=My Blue Heaven
TTITLE3=The Sheik of Araby
TTITLE4=Flying Home
TTITLE5=The C Jam Blues
TTITLE6=If I Could Be With You One Hour Tonight
TTITLE7=Humoresque
TTITLE8=Blue Moon
TTITLE9=In A Little Spanish Town
TTITLE10=Time On My Hands
TTITLE11=China Boy
TTITLE12=Runnin' Wild
TTITLE13=Sweet Lorraine
TTITLE14=The Honeydripper
TTITLE15=East Of The Sun
TTITLE16=Indiana
TTITLE17=Margie
TTITLE18=I Surrender Dear
TTITLE19=I Don't Stand A Ghost Of A Chance With You
TTITLE20=Oscar's Boogie
TTITLE21=Smiles
TTITLE22=Stairway To The Stars
TTITLE23=Poor Butterfly
TTITLE24=Oo-Bop Sh'bam
TTITLE25=Sweet Georgia Brown
EXTD=YEAR: 2002
EXTT0=
EXTT1=
EXTT2=
EXTT3=
EXTT4=
EXTT5=
EXTT6=
EXTT7=
EXTT8=
EXTT9=
EXTT10=
EXTT11=
EXTT12=
EXTT13=
EXTT14=
EXTT15=
EXTT16=
EXTT17=
EXTT18=
EXTT19=
EXTT20=
EXTT21=
EXTT22=
EXTT23=
EXTT24=
EXTT25=
PLAYORDER=
